<svg width="500" height="300" viewBox="0 0 500 300" fill="none" xmlns="http://www.w3.org/2000/svg">
<rect width="500" height="300" rx="20" fill="#222222"/>
<path d="M81.037 125.996C84.109 125.996 86.7543 126.401 88.973 127.212C91.1917 128.023 93.2823 129.239 95.245 130.86L90.125 137.068C87.437 134.892 84.493 133.804 81.293 133.804C78.2637 133.804 75.8103 135.084 73.933 137.644C72.0983 140.204 71.181 144.065 71.181 149.228C71.181 154.391 72.0983 158.231 73.933 160.748C75.7677 163.223 78.285 164.46 81.485 164.46C83.4477 164.46 85.133 164.119 86.541 163.436C87.949 162.753 89.4637 161.772 91.085 160.492L95.821 166.572C91.8957 170.583 86.925 172.588 80.909 172.588C76.8557 172.588 73.2717 171.692 70.157 169.9C67.085 168.108 64.6743 165.463 62.925 161.964C61.1757 158.423 60.301 154.177 60.301 149.228C60.301 144.407 61.197 140.247 62.989 136.748C64.781 133.249 67.2557 130.583 70.413 128.748C73.5703 126.913 77.1117 125.996 81.037 125.996ZM115.7 136.364C120.863 136.364 124.895 138.007 127.796 141.292C130.74 144.535 132.212 148.908 132.212 154.412C132.212 160.129 130.761 164.588 127.86 167.788C124.959 170.988 120.905 172.588 115.7 172.588C110.495 172.588 106.441 171.009 103.54 167.852C100.639 164.652 99.188 160.193 99.188 154.476C99.188 150.849 99.828 147.692 101.108 145.004C102.431 142.273 104.329 140.161 106.804 138.668C109.321 137.132 112.287 136.364 115.7 136.364ZM115.7 143.852C113.609 143.852 112.073 144.705 111.092 146.412C110.111 148.076 109.62 150.764 109.62 154.476C109.62 158.231 110.111 160.961 111.092 162.668C112.073 164.332 113.609 165.164 115.7 165.164C117.791 165.164 119.327 164.311 120.308 162.604C121.289 160.897 121.78 158.167 121.78 154.412C121.78 150.743 121.289 148.076 120.308 146.412C119.327 144.705 117.791 143.852 115.7 143.852ZM168.795 124.012V171.5H159.835L159.323 167.788C158.299 169.239 156.998 170.412 155.419 171.308C153.84 172.161 152.006 172.588 149.915 172.588C145.819 172.588 142.704 170.967 140.571 167.724C138.48 164.481 137.435 160.044 137.435 154.412C137.435 150.913 137.99 147.799 139.099 145.068C140.208 142.337 141.787 140.204 143.835 138.668C145.883 137.132 148.272 136.364 151.003 136.364C154.075 136.364 156.635 137.431 158.683 139.564V122.924L168.795 124.012ZM153.691 143.788C151.856 143.788 150.427 144.663 149.403 146.412C148.379 148.119 147.867 150.807 147.867 154.476C147.867 158.401 148.315 161.175 149.211 162.796C150.15 164.375 151.451 165.164 153.115 165.164C155.248 165.164 157.104 163.863 158.683 161.26V146.604C157.958 145.665 157.19 144.961 156.379 144.492C155.611 144.023 154.715 143.788 153.691 143.788ZM186.498 157.484C187.138 162.647 189.869 165.228 194.69 165.228C197.591 165.228 200.493 164.289 203.394 162.412L207.426 167.916C205.762 169.367 203.778 170.519 201.474 171.372C199.17 172.183 196.631 172.588 193.858 172.588C190.061 172.588 186.839 171.841 184.194 170.348C181.549 168.812 179.543 166.7 178.178 164.012C176.855 161.281 176.194 158.124 176.194 154.54C176.194 151.127 176.834 148.055 178.114 145.324C179.437 142.551 181.335 140.375 183.81 138.796C186.327 137.175 189.314 136.364 192.77 136.364C196.013 136.364 198.829 137.068 201.218 138.476C203.607 139.841 205.442 141.847 206.722 144.492C208.045 147.095 208.706 150.209 208.706 153.836C208.706 155.244 208.642 156.46 208.514 157.484H186.498ZM192.77 143.148C190.935 143.148 189.463 143.831 188.354 145.196C187.245 146.519 186.583 148.567 186.37 151.34H198.85C198.765 145.879 196.738 143.148 192.77 143.148ZM237.737 122.924C242.089 122.924 245.972 123.649 249.385 125.1L246.569 131.692C244.393 130.839 241.982 130.412 239.337 130.412C237.332 130.412 235.881 130.775 234.985 131.5C234.132 132.225 233.705 133.42 233.705 135.084V139.628H244.777L243.625 146.668H233.705V171.5H223.657V146.668H216.489V139.628H223.657V134.764C223.657 131.265 224.873 128.428 227.305 126.252C229.78 124.033 233.257 122.924 237.737 122.924ZM269.2 136.364C274.363 136.364 278.395 138.007 281.296 141.292C284.24 144.535 285.712 148.908 285.712 154.412C285.712 160.129 284.261 164.588 281.36 167.788C278.459 170.988 274.405 172.588 269.2 172.588C263.995 172.588 259.941 171.009 257.04 167.852C254.139 164.652 252.688 160.193 252.688 154.476C252.688 150.849 253.328 147.692 254.608 145.004C255.931 142.273 257.829 140.161 260.304 138.668C262.821 137.132 265.787 136.364 269.2 136.364ZM269.2 143.852C267.109 143.852 265.573 144.705 264.592 146.412C263.611 148.076 263.12 150.764 263.12 154.476C263.12 158.231 263.611 160.961 264.592 162.668C265.573 164.332 267.109 165.164 269.2 165.164C271.291 165.164 272.827 164.311 273.808 162.604C274.789 160.897 275.28 158.167 275.28 154.412C275.28 150.743 274.789 148.076 273.808 146.412C272.827 144.705 271.291 143.852 269.2 143.852ZM318.775 136.492C320.823 136.492 322.7 136.833 324.407 137.516L322.551 151.724H316.151V145.452C314.274 145.793 312.61 146.817 311.159 148.524C309.708 150.231 308.578 152.385 307.767 154.988V164.716H314.487V171.5H293.175V164.716H297.655V144.236H293.175V137.516H305.399L307.191 145.132C308.428 142.231 309.986 140.076 311.863 138.668C313.74 137.217 316.044 136.492 318.775 136.492ZM349.278 164.588C350.558 164.588 351.795 164.353 352.99 163.884C354.185 163.372 355.465 162.647 356.83 161.708L361.31 168.108C359.689 169.473 357.811 170.561 355.678 171.372C353.545 172.183 351.219 172.588 348.702 172.588C345.075 172.588 341.939 171.841 339.294 170.348C336.691 168.855 334.686 166.764 333.278 164.076C331.87 161.388 331.166 158.273 331.166 154.732C331.166 151.191 331.891 148.033 333.342 145.26C334.793 142.487 336.841 140.311 339.486 138.732C342.174 137.153 345.31 136.364 348.894 136.364C351.411 136.364 353.673 136.727 355.678 137.452C357.683 138.135 359.561 139.201 361.31 140.652L356.958 146.732C354.483 145.025 351.945 144.172 349.342 144.172C344.265 144.172 341.726 147.692 341.726 154.732C341.726 158.273 342.387 160.812 343.71 162.348C345.033 163.841 346.889 164.588 349.278 164.588ZM378.373 157.484C379.013 162.647 381.744 165.228 386.565 165.228C389.466 165.228 392.368 164.289 395.269 162.412L399.301 167.916C397.637 169.367 395.653 170.519 393.349 171.372C391.045 172.183 388.506 172.588 385.733 172.588C381.936 172.588 378.714 171.841 376.069 170.348C373.424 168.812 371.418 166.7 370.053 164.012C368.73 161.281 368.069 158.124 368.069 154.54C368.069 151.127 368.709 148.055 369.989 145.324C371.312 142.551 373.21 140.375 375.685 138.796C378.202 137.175 381.189 136.364 384.645 136.364C387.888 136.364 390.704 137.068 393.093 138.476C395.482 139.841 397.317 141.847 398.597 144.492C399.92 147.095 400.581 150.209 400.581 153.836C400.581 155.244 400.517 156.46 400.389 157.484H378.373ZM384.645 143.148C382.81 143.148 381.338 143.831 380.229 145.196C379.12 146.519 378.458 148.567 378.245 151.34H390.725C390.64 145.879 388.613 143.148 384.645 143.148ZM421.612 165.356C423.361 165.356 424.727 165.1 425.708 164.588C426.732 164.033 427.244 163.223 427.244 162.156C427.244 161.388 427.031 160.769 426.604 160.3C426.22 159.831 425.473 159.383 424.364 158.956C423.255 158.487 421.527 157.932 419.18 157.292C415.767 156.396 413.164 155.159 411.372 153.58C409.58 151.959 408.684 149.74 408.684 146.924C408.684 143.809 409.964 141.271 412.524 139.308C415.127 137.345 418.753 136.364 423.404 136.364C428.78 136.364 433.367 137.751 437.164 140.524L433.132 146.476C430.017 144.556 426.881 143.596 423.724 143.596C422.06 143.596 420.823 143.809 420.012 144.236C419.244 144.663 418.86 145.324 418.86 146.22C418.86 146.817 419.052 147.329 419.436 147.756C419.863 148.14 420.631 148.545 421.74 148.972C422.892 149.399 424.599 149.932 426.86 150.572C429.292 151.255 431.276 152.001 432.812 152.812C434.391 153.623 435.607 154.711 436.46 156.076C437.313 157.441 437.74 159.191 437.74 161.324C437.74 163.713 437.015 165.761 435.564 167.468C434.113 169.175 432.172 170.455 429.74 171.308C427.308 172.161 424.62 172.588 421.676 172.588C418.519 172.588 415.66 172.14 413.1 171.244C410.54 170.348 408.364 169.089 406.572 167.468L411.628 161.772C414.7 164.161 418.028 165.356 421.612 165.356Z" fill="#DDDDDD"/>
</svg>
